<?xml version="1.0" encoding="utf-8"?>
<!-- Generator: Adobe Illustrator 18.1.0, SVG Export Plug-In . SVG Version: 6.00 Build 0)  -->
<svg version="1.1" id="Layer_1" xmlns="http://www.w3.org/2000/svg" xmlns:xlink="http://www.w3.org/1999/xlink" x="0px" y="0px"
   viewBox="0 0 300 300" enable-background="new 0 0 300 300" xml:space="preserve">
<g>
  <path d="M24.4,116.8l8.8-40h13.1c5.8,0,10,4.6,10,9.7c0,6.2-4.3,13-14.3,13H30.2l-3.8,17.3H24.4z M42.4,97.7
    c8,0,11.8-5.3,11.8-11.2c0-4.1-3.5-7.9-8.1-7.9H34.8l-4.3,19.1H42.4z"/>
  <path d="M77.1,116.8l4.5-20.3c0.1-0.5,0.4-1.7,0.4-2.2c0-3.9-2.9-5.5-6.9-5.5c-4,0-8,2.8-10.7,5.6l-5,22.4h-1.8l8.8-40h1.8
    l-3.4,15.6c2.7-2.6,6.7-5.3,10.7-5.3c4.7,0,8.3,2.2,8.3,7c0,0.5-0.2,1.9-0.4,2.5l-4.4,20.2H77.1z"/>
  <path d="M90.4,105c0-9.2,6.7-17.8,15.7-17.8c7.4,0,12.3,4.9,12.3,12.6c0,9.2-6.7,17.8-15.7,17.8C95.3,117.6,90.4,112.7,90.4,105z
     M116.3,99.7c0-6.6-3.8-11-10.3-11c-7.9,0-13.6,8-13.6,16.2c0,6.6,3.8,11,10.3,11C110.6,115.9,116.3,108,116.3,99.7z"/>
  <path d="M124.7,113.2c0-0.2,0.1-0.9,0.2-1.4l5-22.3h-4.8l0.4-1.6h4.8l1.7-7.9h1.8l-1.7,7.9h5.9l-0.4,1.6h-5.9l-5,22.3
    c-0.1,0.4-0.1,0.8-0.1,1.3c0,1.9,1,2.9,3,2.9c1.3,0,2.5-0.6,3.3-1.3l0.7,1.4c-1.1,0.8-2.3,1.4-4,1.4
    C126.5,117.6,124.7,116.2,124.7,113.2z"/>
  <path d="M140,105c0-9.2,6.7-17.8,15.7-17.8c7.4,0,12.3,4.9,12.3,12.6c0,9.2-6.7,17.8-15.7,17.8C144.9,117.6,140,112.7,140,105z
     M165.9,99.7c0-6.6-3.8-11-10.3-11c-7.9,0-13.6,8-13.6,16.2c0,6.6,3.8,11,10.3,11C160.1,115.9,165.9,108,165.9,99.7z"/>
  <path d="M217.6,116.8l-18.8-37.1l-8.2,37.1h-1.9l8.8-40h1.9l18.8,36.8l8.2-36.8h1.9l-8.8,40H217.6z"/>
  <path d="M231.1,105c0-9.2,6.7-17.8,15.7-17.8c7.4,0,12.3,4.9,12.3,12.6c0,9.2-6.7,17.8-15.7,17.8
    C236.1,117.6,231.1,112.7,231.1,105z M257.1,99.7c0-6.6-3.8-11-10.3-11c-7.9,0-13.6,8-13.6,16.2c0,6.6,3.8,11,10.3,11
    C251.3,115.9,257.1,108,257.1,99.7z"/>
  <path d="M265.5,113.2c0-0.2,0.1-0.9,0.2-1.4l5-22.3h-4.8l0.4-1.6h4.8l1.7-7.9h1.8l-1.7,7.9h5.9l-0.4,1.6h-5.9l-5,22.3
    c-0.1,0.4-0.1,0.8-0.1,1.3c0,1.9,1,2.9,3,2.9c1.3,0,2.5-0.6,3.3-1.3l0.7,1.4c-1.1,0.8-2.3,1.4-4,1.4
    C267.3,117.6,265.5,116.2,265.5,113.2z"/>
  <path d="M62.7,188.8l-2.1-10.7H38.3l-6.8,10.7h-2.3l25.5-40h2.3l7.9,40H62.7z M55.4,151l-16,25.3h20.9L55.4,151z"/>
  <path d="M77.9,188.8l-6-29h2l5.4,26.9l17.3-26.9h2.2l-18.8,29H77.9z"/>
  <path d="M125.4,165.1l1.1-5.2h1.8l-6.4,29h-1.8l1-4.6c-2.3,3.1-6,5.3-10.3,5.3c-6.7,0-11.4-4.4-11.4-11.9c0-10,6.2-18.5,15.2-18.5
    C119.6,159.1,123.4,161.7,125.4,165.1z M101.5,177.4c0,6.5,3.7,10.5,9.5,10.5c4.5,0,8.6-2.9,10.8-6.2l3.3-15.1
    c-1.5-3.2-5.3-5.9-10.4-5.9C106.6,160.8,101.5,169.1,101.5,177.4z"/>
  <path d="M132.2,188.8l6.4-29h1.8l-6.4,29H132.2z M139.2,153.3c0-1.1,1.1-1.9,2-1.9s1.6,0.7,1.6,1.6c0,1.1-1.1,1.9-2,1.9
    S139.2,154.2,139.2,153.3z"/>
  <path d="M144.4,188.8l8.8-40h1.8l-8.8,40H144.4z"/>
  <path d="M183.6,165.1l1.1-5.2h1.8l-6.4,29h-1.8l1-4.6c-2.3,3.1-6,5.3-10.3,5.3c-6.7,0-11.4-4.4-11.4-11.9c0-10,6.2-18.5,15.2-18.5
    C177.8,159.1,181.6,161.7,183.6,165.1z M159.7,177.4c0,6.5,3.7,10.5,9.5,10.5c4.5,0,8.6-2.9,10.8-6.2l3.3-15.1
    c-1.5-3.2-5.3-5.9-10.4-5.9C164.8,160.8,159.7,169.1,159.7,177.4z"/>
  <path d="M193.4,183.6l-1.1,5.2h-1.8l8.8-40h1.8l-3.4,15.7c2.3-3.1,6-5.3,10.3-5.3c6.7,0,11.4,4.4,11.4,11.9
    c0,10-6.2,18.5-15.2,18.5C199.1,189.6,195.4,187,193.4,183.6z M217.3,171.3c0-6.5-3.7-10.5-9.5-10.5c-4.5,0-8.6,2.9-10.8,6.2
    l-3.3,15.1c1.5,3.2,5.3,5.9,10.4,5.9C212.2,187.9,217.3,179.6,217.3,171.3z"/>
  <path d="M224.4,188.8l8.8-40h1.8l-8.8,40H224.4z"/>
  <path d="M237.7,176.8c0-9.7,7.1-17.7,15.9-17.7c7.9,0,12.1,5.6,12.1,12.4c0,1.1-0.2,2.6-0.4,3.4h-25.4c-0.1,0.4-0.1,1.3-0.1,1.9
    c0,6.2,3.8,11.1,11.4,11.1c3.1,0,6.5-1.1,9.2-3.4l0.9,1.3c-2.5,2-6.2,3.7-10.1,3.7C242.5,189.6,237.7,184.2,237.7,176.8z
     M263.7,173.3c0.1-0.4,0.1-1.1,0.1-1.6c0-6.5-3.8-11-10.6-11c-6.4,0-12.1,5.8-13.3,12.5H263.7z"/>
</g>
</svg>
